<mxfile host="app.diagrams.net" modified="2024-02-07T15:59:17.816Z" agent="Mozilla/5.0 (Windows NT 10.0; Win64; x64) AppleWebKit/537.36 (KHTML, like Gecko) Chrome/121.0.0.0 Safari/537.36" etag="CgBN3fqtQvWiAepi3jHo" version="23.1.1" type="github">
  <diagram id="C5RBs43oDa-KdzZeNtuy" name="Page-1">
    <mxGraphModel dx="2487" dy="1268" grid="0" gridSize="10" guides="1" tooltips="1" connect="1" arrows="1" fold="1" page="0" pageScale="1" pageWidth="827" pageHeight="1169" background="#E8E8E8" math="0" shadow="0">
      <root>
        <mxCell id="WIyWlLk6GJQsqaUBKTNV-0" />
        <mxCell id="WIyWlLk6GJQsqaUBKTNV-1" parent="WIyWlLk6GJQsqaUBKTNV-0" />
        <mxCell id="qTa-QZpGBY24wLDkycuW-0" value="" style="shape=mxgraph.cisco.people.androgenous_person;html=1;pointerEvents=1;dashed=0;fillColor=#036897;strokeColor=#ffffff;strokeWidth=2;verticalLabelPosition=bottom;verticalAlign=top;align=center;outlineConnect=0;" vertex="1" parent="WIyWlLk6GJQsqaUBKTNV-1">
          <mxGeometry x="-582" y="-60" width="69" height="82" as="geometry" />
        </mxCell>
        <mxCell id="qTa-QZpGBY24wLDkycuW-1" value="&lt;div style=&quot;text-align: left;&quot;&gt;&lt;span style=&quot;background-color: initial;&quot;&gt;Generación Comprobante:&lt;/span&gt;&lt;/div&gt;&lt;div style=&quot;text-align: left;&quot;&gt;&lt;span style=&quot;background-color: initial;&quot;&gt;&lt;br&gt;&lt;/span&gt;&lt;/div&gt;&lt;div style=&quot;text-align: left;&quot;&gt;&lt;span style=&quot;background-color: initial;&quot;&gt;* Factura&lt;/span&gt;&lt;/div&gt;&lt;div style=&quot;text-align: left;&quot;&gt;&lt;span style=&quot;background-color: initial;&quot;&gt;* Boleta&amp;nbsp;&lt;/span&gt;&lt;/div&gt;&lt;div style=&quot;text-align: left;&quot;&gt;&lt;span style=&quot;background-color: initial;&quot;&gt;* Nota de crédito&amp;nbsp;&lt;/span&gt;&lt;/div&gt;&lt;div style=&quot;text-align: left;&quot;&gt;&lt;span style=&quot;background-color: initial;&quot;&gt;* Nota de Debito&lt;/span&gt;&lt;/div&gt;&lt;div style=&quot;text-align: left;&quot;&gt;&lt;span style=&quot;background-color: initial;&quot;&gt;*Guía Remisión&lt;/span&gt;&lt;/div&gt;" style="text;html=1;align=center;verticalAlign=middle;resizable=0;points=[];autosize=1;strokeColor=none;fillColor=default;rounded=0;shadow=0;gradientColor=none;imageAlign=left;" vertex="1" parent="WIyWlLk6GJQsqaUBKTNV-1">
          <mxGeometry x="-639" y="33" width="159" height="113" as="geometry" />
        </mxCell>
        <mxCell id="qTa-QZpGBY24wLDkycuW-2" value="" style="shape=image;verticalLabelPosition=bottom;labelBackgroundColor=default;verticalAlign=top;aspect=fixed;imageAspect=0;image=https://www.nubefact.com/assets/logo-bc8f654e9ae4218bdd3903296e9ac9867add036a8437c32ed1c181b491b4f2b9.png;" vertex="1" parent="WIyWlLk6GJQsqaUBKTNV-1">
          <mxGeometry x="-280" y="-56.419999999999995" width="286.5" height="78" as="geometry" />
        </mxCell>
        <mxCell id="qTa-QZpGBY24wLDkycuW-3" value="" style="endArrow=classic;startArrow=classic;html=1;rounded=0;entryX=0;entryY=0.5;entryDx=0;entryDy=0;spacingTop=5;curved=0;targetPerimeterSpacing=27;startSize=14;endSize=14;strokeWidth=2;" edge="1" parent="WIyWlLk6GJQsqaUBKTNV-1" source="qTa-QZpGBY24wLDkycuW-0" target="qTa-QZpGBY24wLDkycuW-2">
          <mxGeometry width="50" height="50" relative="1" as="geometry">
            <mxPoint x="92" y="206" as="sourcePoint" />
            <mxPoint x="142" y="156" as="targetPoint" />
          </mxGeometry>
        </mxCell>
        <mxCell id="qTa-QZpGBY24wLDkycuW-22" value="" style="group;movable=1;resizable=1;rotatable=1;deletable=1;editable=1;locked=0;connectable=1;imageAlign=center;imageAspect=1;rotation=90;" vertex="1" connectable="0" parent="WIyWlLk6GJQsqaUBKTNV-1">
          <mxGeometry x="167" y="47" width="307" height="203" as="geometry" />
        </mxCell>
        <mxCell id="qTa-QZpGBY24wLDkycuW-9" value="Estados de CPE" style="shape=table;startSize=30;container=1;collapsible=0;childLayout=tableLayout;fixedRows=0;rowLines=1;fontStyle=0;strokeColor=default;fontSize=16;columnLines=1;resizeLast=0;resizeLastRow=0;absoluteArcSize=0;swimlaneHead=1;swimlaneBody=1;horizontal=1;top=1;bottom=1;strokeOpacity=100;noLabel=0;portConstraintRotation=0;backgroundOutline=0;movable=0;resizable=0;rotatable=0;deletable=0;editable=0;locked=1;connectable=0;" vertex="1" parent="qTa-QZpGBY24wLDkycuW-22">
          <mxGeometry x="39" y="-8" width="230" height="180" as="geometry" />
        </mxCell>
        <mxCell id="qTa-QZpGBY24wLDkycuW-10" value="" style="shape=tableRow;horizontal=0;startSize=0;swimlaneHead=0;swimlaneBody=0;top=0;left=0;bottom=0;right=0;collapsible=0;dropTarget=0;fillColor=none;points=[[0,0.5],[1,0.5]];portConstraint=eastwest;strokeColor=inherit;fontSize=16;movable=0;resizable=0;rotatable=0;deletable=0;editable=0;locked=1;connectable=0;" vertex="1" parent="qTa-QZpGBY24wLDkycuW-9">
          <mxGeometry y="30" width="230" height="40" as="geometry" />
        </mxCell>
        <mxCell id="qTa-QZpGBY24wLDkycuW-11" value="1" style="shape=partialRectangle;html=1;whiteSpace=wrap;connectable=0;fillColor=none;top=0;left=0;bottom=0;right=0;overflow=hidden;pointerEvents=1;strokeColor=inherit;fontSize=16;movable=0;resizable=0;rotatable=0;deletable=0;editable=0;locked=1;" vertex="1" parent="qTa-QZpGBY24wLDkycuW-10">
          <mxGeometry width="55" height="40" as="geometry">
            <mxRectangle width="55" height="40" as="alternateBounds" />
          </mxGeometry>
        </mxCell>
        <mxCell id="qTa-QZpGBY24wLDkycuW-12" value="Aceptado" style="shape=partialRectangle;html=1;whiteSpace=wrap;connectable=0;fillColor=none;top=0;left=0;bottom=0;right=0;align=left;spacingLeft=6;overflow=hidden;strokeColor=inherit;fontSize=16;movable=0;resizable=0;rotatable=0;deletable=0;editable=0;locked=1;" vertex="1" parent="qTa-QZpGBY24wLDkycuW-10">
          <mxGeometry x="55" width="175" height="40" as="geometry">
            <mxRectangle width="175" height="40" as="alternateBounds" />
          </mxGeometry>
        </mxCell>
        <mxCell id="qTa-QZpGBY24wLDkycuW-13" value="" style="shape=tableRow;horizontal=0;startSize=0;swimlaneHead=0;swimlaneBody=0;top=0;left=0;bottom=0;right=0;collapsible=0;dropTarget=0;fillColor=none;points=[[0,0.5],[1,0.5]];portConstraint=eastwest;strokeColor=inherit;fontSize=16;movable=0;resizable=0;rotatable=0;deletable=0;editable=0;locked=1;connectable=0;" vertex="1" parent="qTa-QZpGBY24wLDkycuW-9">
          <mxGeometry y="70" width="230" height="39" as="geometry" />
        </mxCell>
        <mxCell id="qTa-QZpGBY24wLDkycuW-14" value="2" style="shape=partialRectangle;html=1;whiteSpace=wrap;connectable=0;fillColor=none;top=0;left=0;bottom=0;right=0;overflow=hidden;strokeColor=inherit;fontSize=16;movable=0;resizable=0;rotatable=0;deletable=0;editable=0;locked=1;" vertex="1" parent="qTa-QZpGBY24wLDkycuW-13">
          <mxGeometry width="55" height="39" as="geometry">
            <mxRectangle width="55" height="39" as="alternateBounds" />
          </mxGeometry>
        </mxCell>
        <mxCell id="qTa-QZpGBY24wLDkycuW-15" value="Aceptado con Obs" style="shape=partialRectangle;html=1;whiteSpace=wrap;connectable=0;fillColor=none;top=0;left=0;bottom=0;right=0;align=left;spacingLeft=6;overflow=hidden;strokeColor=inherit;fontSize=16;movable=0;resizable=0;rotatable=0;deletable=0;editable=0;locked=1;" vertex="1" parent="qTa-QZpGBY24wLDkycuW-13">
          <mxGeometry x="55" width="175" height="39" as="geometry">
            <mxRectangle width="175" height="39" as="alternateBounds" />
          </mxGeometry>
        </mxCell>
        <mxCell id="qTa-QZpGBY24wLDkycuW-16" value="" style="shape=tableRow;horizontal=0;startSize=0;swimlaneHead=0;swimlaneBody=0;top=0;left=0;bottom=0;right=0;collapsible=0;dropTarget=0;fillColor=none;points=[[0,0.5],[1,0.5]];portConstraint=eastwest;strokeColor=inherit;fontSize=16;movable=0;resizable=0;rotatable=0;deletable=0;editable=0;locked=1;connectable=0;" vertex="1" parent="qTa-QZpGBY24wLDkycuW-9">
          <mxGeometry y="109" width="230" height="36" as="geometry" />
        </mxCell>
        <mxCell id="qTa-QZpGBY24wLDkycuW-17" value="3" style="shape=partialRectangle;html=1;whiteSpace=wrap;connectable=0;fillColor=none;top=0;left=0;bottom=0;right=0;overflow=hidden;strokeColor=inherit;fontSize=16;movable=0;resizable=0;rotatable=0;deletable=0;editable=0;locked=1;" vertex="1" parent="qTa-QZpGBY24wLDkycuW-16">
          <mxGeometry width="55" height="36" as="geometry">
            <mxRectangle width="55" height="36" as="alternateBounds" />
          </mxGeometry>
        </mxCell>
        <mxCell id="qTa-QZpGBY24wLDkycuW-18" value="Rechazado" style="shape=partialRectangle;html=1;whiteSpace=wrap;connectable=0;fillColor=none;top=0;left=0;bottom=0;right=0;align=left;spacingLeft=6;overflow=hidden;strokeColor=inherit;fontSize=16;movable=0;resizable=0;rotatable=0;deletable=0;editable=0;locked=1;" vertex="1" parent="qTa-QZpGBY24wLDkycuW-16">
          <mxGeometry x="55" width="175" height="36" as="geometry">
            <mxRectangle width="175" height="36" as="alternateBounds" />
          </mxGeometry>
        </mxCell>
        <mxCell id="qTa-QZpGBY24wLDkycuW-24" style="shape=tableRow;horizontal=0;startSize=0;swimlaneHead=0;swimlaneBody=0;top=0;left=0;bottom=0;right=0;collapsible=0;dropTarget=0;fillColor=none;points=[[0,0.5],[1,0.5]];portConstraint=eastwest;strokeColor=inherit;fontSize=16;movable=0;resizable=0;rotatable=0;deletable=0;editable=0;locked=1;connectable=0;" vertex="1" parent="qTa-QZpGBY24wLDkycuW-9">
          <mxGeometry y="145" width="230" height="35" as="geometry" />
        </mxCell>
        <mxCell id="qTa-QZpGBY24wLDkycuW-25" value="4" style="shape=partialRectangle;html=1;whiteSpace=wrap;connectable=0;fillColor=none;top=0;left=0;bottom=0;right=0;overflow=hidden;strokeColor=inherit;fontSize=16;movable=0;resizable=0;rotatable=0;deletable=0;editable=0;locked=1;" vertex="1" parent="qTa-QZpGBY24wLDkycuW-24">
          <mxGeometry width="55" height="35" as="geometry">
            <mxRectangle width="55" height="35" as="alternateBounds" />
          </mxGeometry>
        </mxCell>
        <mxCell id="qTa-QZpGBY24wLDkycuW-26" value="Excepción" style="shape=partialRectangle;html=1;whiteSpace=wrap;connectable=0;fillColor=none;top=0;left=0;bottom=0;right=0;align=left;spacingLeft=6;overflow=hidden;strokeColor=inherit;fontSize=16;movable=0;resizable=0;rotatable=0;deletable=0;editable=0;locked=1;" vertex="1" parent="qTa-QZpGBY24wLDkycuW-24">
          <mxGeometry x="55" width="175" height="35" as="geometry">
            <mxRectangle width="175" height="35" as="alternateBounds" />
          </mxGeometry>
        </mxCell>
        <mxCell id="qTa-QZpGBY24wLDkycuW-6" value="" style="shape=image;verticalLabelPosition=bottom;labelBackgroundColor=default;verticalAlign=top;aspect=fixed;imageAspect=0;image=https://proludica.com/wp-content/uploads/2019/10/SUNAT.png;" vertex="1" parent="qTa-QZpGBY24wLDkycuW-22">
          <mxGeometry x="-19" y="-94.21000000000001" width="247.52" height="65.59" as="geometry" />
        </mxCell>
        <mxCell id="qTa-QZpGBY24wLDkycuW-33" value="Consulta Api - Nubefact" style="shape=table;childLayout=tableLayout;startSize=40;collapsible=0;recursiveResize=0;expand=0;fontSize=16;" vertex="1" parent="WIyWlLk6GJQsqaUBKTNV-1">
          <mxGeometry x="601" y="377" width="519.5862068965516" height="160" as="geometry" />
        </mxCell>
        <mxCell id="qTa-QZpGBY24wLDkycuW-34" value="Tiempo" style="shape=tableRow;horizontal=0;swimlaneHead=0;swimlaneBody=0;top=0;left=0;strokeColor=inherit;bottom=0;right=0;dropTarget=0;fontStyle=0;fillColor=none;points=[[0,0.5],[1,0.5]];portConstraint=eastwest;startSize=40;collapsible=0;recursiveResize=0;expand=0;fontSize=16;" vertex="1" parent="qTa-QZpGBY24wLDkycuW-33">
          <mxGeometry y="40" width="519.5862068965516" height="120" as="geometry" />
        </mxCell>
        <mxCell id="qTa-QZpGBY24wLDkycuW-35" value="Factura  / NC / ND" style="swimlane;swimlaneHead=0;swimlaneBody=0;fontStyle=0;strokeColor=inherit;connectable=0;fillColor=none;startSize=40;collapsible=0;recursiveResize=0;expand=0;fontSize=16;" vertex="1" parent="qTa-QZpGBY24wLDkycuW-34">
          <mxGeometry x="40" width="160" height="120" as="geometry">
            <mxRectangle width="160" height="120" as="alternateBounds" />
          </mxGeometry>
        </mxCell>
        <mxCell id="qTa-QZpGBY24wLDkycuW-53" value="5 Min" style="text;html=1;align=center;verticalAlign=middle;resizable=0;points=[];autosize=1;strokeColor=none;fillColor=none;fontSize=21;" vertex="1" parent="qTa-QZpGBY24wLDkycuW-35">
          <mxGeometry x="46" y="58" width="69" height="37" as="geometry" />
        </mxCell>
        <mxCell id="qTa-QZpGBY24wLDkycuW-49" value="Boleta / NC / ND" style="swimlane;swimlaneHead=0;swimlaneBody=0;fontStyle=0;strokeColor=inherit;connectable=0;fillColor=none;startSize=40;collapsible=0;recursiveResize=0;expand=0;fontSize=16;" vertex="1" parent="qTa-QZpGBY24wLDkycuW-34">
          <mxGeometry x="200" width="160" height="120" as="geometry">
            <mxRectangle width="160" height="120" as="alternateBounds" />
          </mxGeometry>
        </mxCell>
        <mxCell id="qTa-QZpGBY24wLDkycuW-54" value="24 Hrs" style="text;html=1;align=center;verticalAlign=middle;resizable=0;points=[];autosize=1;strokeColor=none;fillColor=none;fontSize=21;" vertex="1" parent="qTa-QZpGBY24wLDkycuW-49">
          <mxGeometry x="43" y="58" width="80" height="37" as="geometry" />
        </mxCell>
        <mxCell id="qTa-QZpGBY24wLDkycuW-46" value="Guía Remisión" style="swimlane;swimlaneHead=0;swimlaneBody=0;fontStyle=0;strokeColor=inherit;connectable=0;fillColor=none;startSize=40;collapsible=0;recursiveResize=0;expand=0;fontSize=16;" vertex="1" parent="qTa-QZpGBY24wLDkycuW-34">
          <mxGeometry x="360" width="160" height="120" as="geometry">
            <mxRectangle width="160" height="120" as="alternateBounds" />
          </mxGeometry>
        </mxCell>
        <mxCell id="qTa-QZpGBY24wLDkycuW-55" value="5 Min" style="text;html=1;align=center;verticalAlign=middle;resizable=0;points=[];autosize=1;strokeColor=none;fillColor=none;fontSize=21;" vertex="1" parent="qTa-QZpGBY24wLDkycuW-46">
          <mxGeometry x="45.5" y="58" width="69" height="37" as="geometry" />
        </mxCell>
        <mxCell id="qTa-QZpGBY24wLDkycuW-60" value="" style="shape=image;verticalLabelPosition=bottom;labelBackgroundColor=default;verticalAlign=top;aspect=fixed;imageAspect=0;image=https://cdn.icon-icons.com/icons2/1526/PNG/512/invoice_106601.png;" vertex="1" parent="WIyWlLk6GJQsqaUBKTNV-1">
          <mxGeometry x="-444" y="-135" width="102" height="102" as="geometry" />
        </mxCell>
        <mxCell id="qTa-QZpGBY24wLDkycuW-61" value="" style="points=[[0.03,0.03,0],[0.5,0,0],[0.97,0.03,0],[1,0.4,0],[0.97,0.745,0],[0.5,1,0],[0.03,0.745,0],[0,0.4,0]];verticalLabelPosition=bottom;sketch=0;html=1;verticalAlign=top;aspect=fixed;align=center;pointerEvents=1;shape=mxgraph.cisco19.stealthwatch_management_console_smc;fillColor=#005073;strokeColor=none;" vertex="1" parent="WIyWlLk6GJQsqaUBKTNV-1">
          <mxGeometry x="258.5" y="427" width="124" height="99.2" as="geometry" />
        </mxCell>
        <mxCell id="qTa-QZpGBY24wLDkycuW-65" value="" style="endArrow=classic;html=1;rounded=0;exitX=0.5;exitY=0;exitDx=0;exitDy=0;exitPerimeter=0;jumpSize=13;strokeColor=default;startArrow=none;startFill=0;strokeWidth=2;" edge="1" parent="WIyWlLk6GJQsqaUBKTNV-1" source="qTa-QZpGBY24wLDkycuW-61">
          <mxGeometry width="50" height="50" relative="1" as="geometry">
            <mxPoint x="297" y="385" as="sourcePoint" />
            <mxPoint x="321" y="223" as="targetPoint" />
          </mxGeometry>
        </mxCell>
        <mxCell id="qTa-QZpGBY24wLDkycuW-66" value="" style="endArrow=classic;html=1;rounded=0;exitX=1;exitY=0.4;exitDx=0;exitDy=0;exitPerimeter=0;entryX=-0.002;entryY=0.419;entryDx=0;entryDy=0;entryPerimeter=0;strokeWidth=2;" edge="1" parent="WIyWlLk6GJQsqaUBKTNV-1" source="qTa-QZpGBY24wLDkycuW-61" target="qTa-QZpGBY24wLDkycuW-34">
          <mxGeometry width="50" height="50" relative="1" as="geometry">
            <mxPoint x="579" y="421" as="sourcePoint" />
            <mxPoint x="629" y="371" as="targetPoint" />
          </mxGeometry>
        </mxCell>
        <mxCell id="qTa-QZpGBY24wLDkycuW-71" value="" style="shape=image;verticalLabelPosition=bottom;labelBackgroundColor=default;verticalAlign=top;aspect=fixed;imageAspect=0;image=https://static.vecteezy.com/system/resources/previews/025/377/309/non_2x/green-check-mark-and-red-cross-mark-in-circle-vector.jpg;" vertex="1" parent="WIyWlLk6GJQsqaUBKTNV-1">
          <mxGeometry x="388" y="644" width="188" height="94" as="geometry" />
        </mxCell>
        <mxCell id="qTa-QZpGBY24wLDkycuW-72" value="" style="shape=image;verticalLabelPosition=bottom;labelBackgroundColor=default;verticalAlign=top;aspect=fixed;imageAspect=0;image=https://cdn-icons-png.freepik.com/512/9850/9850812.png;" vertex="1" parent="WIyWlLk6GJQsqaUBKTNV-1">
          <mxGeometry x="123" y="624" width="110" height="110" as="geometry" />
        </mxCell>
        <mxCell id="qTa-QZpGBY24wLDkycuW-79" value="" style="endArrow=classic;html=1;rounded=0;" edge="1" parent="WIyWlLk6GJQsqaUBKTNV-1" target="qTa-QZpGBY24wLDkycuW-6">
          <mxGeometry relative="1" as="geometry">
            <mxPoint x="-21" y="-15" as="sourcePoint" />
            <mxPoint x="79" y="-15" as="targetPoint" />
          </mxGeometry>
        </mxCell>
        <mxCell id="qTa-QZpGBY24wLDkycuW-80" value="" style="shape=message;html=1;outlineConnect=0;strokeWidth=2;perimeterSpacing=6;fontSize=19;" vertex="1" parent="qTa-QZpGBY24wLDkycuW-79">
          <mxGeometry width="34" height="27" relative="1" as="geometry">
            <mxPoint x="-27" y="-13" as="offset" />
          </mxGeometry>
        </mxCell>
        <mxCell id="qTa-QZpGBY24wLDkycuW-82" value="" style="endArrow=classic;html=1;rounded=0;" edge="1" parent="WIyWlLk6GJQsqaUBKTNV-1" source="qTa-QZpGBY24wLDkycuW-61">
          <mxGeometry width="50" height="50" relative="1" as="geometry">
            <mxPoint x="382.5" y="526.6" as="sourcePoint" />
            <mxPoint x="468" y="633" as="targetPoint" />
          </mxGeometry>
        </mxCell>
        <mxCell id="qTa-QZpGBY24wLDkycuW-83" value="" style="endArrow=classic;html=1;rounded=0;entryX=1.006;entryY=0.564;entryDx=0;entryDy=0;entryPerimeter=0;" edge="1" parent="WIyWlLk6GJQsqaUBKTNV-1" target="qTa-QZpGBY24wLDkycuW-72">
          <mxGeometry width="50" height="50" relative="1" as="geometry">
            <mxPoint x="374" y="686" as="sourcePoint" />
            <mxPoint x="437" y="634" as="targetPoint" />
          </mxGeometry>
        </mxCell>
        <mxCell id="qTa-QZpGBY24wLDkycuW-85" value="" style="endArrow=classic;html=1;rounded=0;entryX=0.106;entryY=1.007;entryDx=0;entryDy=0;entryPerimeter=0;exitX=0.656;exitY=-0.005;exitDx=0;exitDy=0;exitPerimeter=0;" edge="1" parent="WIyWlLk6GJQsqaUBKTNV-1" source="qTa-QZpGBY24wLDkycuW-72" target="qTa-QZpGBY24wLDkycuW-61">
          <mxGeometry width="50" height="50" relative="1" as="geometry">
            <mxPoint x="200" y="613" as="sourcePoint" />
            <mxPoint x="250" y="563" as="targetPoint" />
          </mxGeometry>
        </mxCell>
        <mxCell id="qTa-QZpGBY24wLDkycuW-86" value="Estado Comprobante&amp;nbsp;&lt;br style=&quot;font-size: 16px;&quot;&gt;&amp;nbsp;Aceptado&amp;nbsp; / Rechazado" style="text;html=1;align=center;verticalAlign=middle;resizable=0;points=[];autosize=1;strokeColor=none;fillColor=none;fontSize=16;" vertex="1" parent="WIyWlLk6GJQsqaUBKTNV-1">
          <mxGeometry x="388" y="738" width="188" height="50" as="geometry" />
        </mxCell>
        <mxCell id="qTa-QZpGBY24wLDkycuW-87" value="dbMaterial&lt;br style=&quot;font-size: 16px;&quot;&gt;dbInvoicing" style="text;html=1;align=center;verticalAlign=middle;resizable=0;points=[];autosize=1;strokeColor=none;fillColor=none;fontSize=16;" vertex="1" parent="WIyWlLk6GJQsqaUBKTNV-1">
          <mxGeometry x="128.5" y="738" width="99" height="50" as="geometry" />
        </mxCell>
        <mxCell id="qTa-QZpGBY24wLDkycuW-88" value="Consola" style="text;html=1;align=center;verticalAlign=middle;resizable=0;points=[];autosize=1;strokeColor=none;fillColor=none;fontSize=20;" vertex="1" parent="WIyWlLk6GJQsqaUBKTNV-1">
          <mxGeometry x="275" y="531" width="91" height="36" as="geometry" />
        </mxCell>
      </root>
    </mxGraphModel>
  </diagram>
</mxfile>
